<svg width="1100" height="900" viewBox="0 0 1100 900" fill="none" xmlns="http://www.w3.org/2000/svg" role="img" aria-labelledby="title desc">
  <title id="title">Engineering workspace illustration</title>
  <desc id="desc">An abstract dashboard and code workspace with connected engineering modules.</desc>
  <rect width="1100" height="900" fill="#F5F6F0"/>
  <rect x="72" y="82" width="956" height="736" rx="36" fill="#17201D"/>
  <rect x="112" y="130" width="876" height="640" rx="20" fill="#FFFFFF"/>
  <rect x="112" y="130" width="876" height="68" rx="20" fill="#E5EEE9"/>
  <circle cx="156" cy="164" r="10" fill="#D95F46"/>
  <circle cx="188" cy="164" r="10" fill="#C69637"/>
  <circle cx="220" cy="164" r="10" fill="#0F766E"/>
  <rect x="782" y="150" width="154" height="28" rx="8" fill="#17201D"/>
  <rect x="146" y="236" width="296" height="216" rx="18" fill="#F7F8F4" stroke="#D7DFDA" stroke-width="2"/>
  <rect x="478" y="236" width="476" height="216" rx="18" fill="#F7F8F4" stroke="#D7DFDA" stroke-width="2"/>
  <rect x="146" y="486" width="808" height="232" rx="18" fill="#17201D"/>
  <rect x="178" y="274" width="118" height="16" rx="8" fill="#0F766E"/>
  <rect x="178" y="312" width="228" height="14" rx="7" fill="#AAB8B2"/>
  <rect x="178" y="342" width="186" height="14" rx="7" fill="#CDD7D1"/>
  <rect x="178" y="386" width="70" height="34" rx="8" fill="#D95F46"/>
  <rect x="262" y="386" width="88" height="34" rx="8" fill="#C69637"/>
  <rect x="526" y="274" width="146" height="16" rx="8" fill="#17201D"/>
  <path d="M526 392C560 324 624 382 664 332C704 282 742 346 782 310C826 270 858 330 906 292" stroke="#0F766E" stroke-width="12" stroke-linecap="round"/>
  <path d="M526 410C566 374 612 428 666 386C724 342 756 424 806 380C852 340 884 404 922 358" stroke="#D95F46" stroke-width="8" stroke-linecap="round"/>
  <circle cx="526" cy="392" r="9" fill="#0F766E"/>
  <circle cx="664" cy="332" r="9" fill="#0F766E"/>
  <circle cx="782" cy="310" r="9" fill="#0F766E"/>
  <circle cx="906" cy="292" r="9" fill="#0F766E"/>
  <rect x="186" y="532" width="116" height="14" rx="7" fill="#C69637"/>
  <rect x="186" y="574" width="260" height="12" rx="6" fill="#E5EEE9"/>
  <rect x="186" y="606" width="206" height="12" rx="6" fill="#8FA19A"/>
  <rect x="186" y="638" width="312" height="12" rx="6" fill="#E5EEE9"/>
  <rect x="186" y="670" width="178" height="12" rx="6" fill="#8FA19A"/>
  <rect x="552" y="532" width="306" height="138" rx="16" fill="#24312D"/>
  <rect x="588" y="568" width="78" height="72" rx="12" fill="#0F766E"/>
  <rect x="694" y="590" width="78" height="50" rx="12" fill="#D95F46"/>
  <rect x="800" y="552" width="78" height="88" rx="12" fill="#C69637"/>
  <path d="M628 568V524C628 509.641 639.641 498 654 498H720C734.359 498 746 486.359 746 472V452" stroke="#8FA19A" stroke-width="6" stroke-linecap="round"/>
  <path d="M838 552V516C838 501.641 826.359 490 812 490H746" stroke="#8FA19A" stroke-width="6" stroke-linecap="round"/>
  <circle cx="746" cy="452" r="10" fill="#0F766E"/>
  <circle cx="746" cy="490" r="8" fill="#D95F46"/>
</svg>
